<?xml version="1.0" encoding="utf-8"?>
<!-- Generator: Adobe Illustrator 21.0.0, SVG Export Plug-In . SVG Version: 6.00 Build 0)  -->
<svg version="1.1" id="Layer_1" xmlns="http://www.w3.org/2000/svg" xmlns:xlink="http://www.w3.org/1999/xlink" x="0px" y="0px"
	 viewBox="0 0 1670.7 507" style="enable-background:new 0 0 1670.7 507;" xml:space="preserve">
<style type="text/css">
	.st0{fill:#E73F8D;}
	.st1{fill:#FFFFFF;}
	.st2{fill:#FEEA00;}
	.st3{fill:#68C6EA;}
</style>
<g>
	<g>
		<rect x="143" y="110.5" class="st0" width="70.4" height="16.7"/>
		<polyline class="st1" points="290.7,191.2 290.7,300.4 265.3,300.4 265.3,169.9 290.7,169.9 		"/>
		<rect x="227.1" y="145.4" class="st2" width="25.4" height="113.6"/>
		<rect x="265.3" y="145.8" class="st2" width="25.4" height="19.8"/>
		<polygon class="st2" points="326.5,279 298.5,279 298.5,226 298.5,212.2 326.5,232.7 		"/>
		<rect x="188" y="116.5" class="st0" width="25.4" height="17.8"/>
		<rect x="143.5" y="169.8" class="st1" width="25.4" height="140.3"/>
		<rect x="107.5" y="251.2" class="st1" width="25.4" height="58.9"/>
		<rect x="142.7" y="110.5" class="st0" width="25.4" height="55.1"/>
		<rect x="107.5" y="293.4" class="st1" width="60.6" height="16.7"/>
		<rect x="227.1" y="134.3" class="st2" width="63.6" height="16.7"/>
		<polygon class="st0" points="298.5,204.8 326.5,226.2 326.5,198.2 361,198.2 361,182.8 298.5,182.8 		"/>
		<rect x="188" y="143.8" class="st3" width="25.4" height="15.1"/>
		<rect x="298.8" y="69.5" class="st1" width="25.4" height="107.7"/>
		<polygon class="st3" points="298.5,282.3 298.5,320.2 290.7,320.2 290.7,304.4 265.3,304.4 265.3,320.2 265.3,328.5 265.3,336.8
			326.5,336.8 326.5,328.5 326.5,320.2 326.5,282.3 		"/>
		<rect x="188" y="169.9" class="st3" width="25.4" height="129.2"/>
		<polygon class="st3" points="23.2,169.9 107.5,169.9 107.5,245.6 132.9,245.6 132.9,169.9 132.9,169.9 132.9,151.8 23.2,151.8
			"/>
		<polygon class="st1" points="227.1,265.4 227.1,334.4 213.4,334.4 213.4,304.4 188,304.4 188,334.4 188,349.2 188,351.1
			230.7,351.1 230.7,394.4 241.3,424.6 250.9,394.4 250.9,265.4 		"/>
		<rect x="21.2" y="371.3" class="st3" width="11.7" height="12.5"/>
	</g>
	<g>
		<rect x="409.9" y="255.1" class="st0" width="1182.6" height="4.9"/>
		<path class="st1" d="M483.3,233.2h-68.9v-1.6c10.3,0,16.5-0.4,18.6-1.3c1-0.4,1.7-1,2.1-1.9c0.4-0.8,0.6-2.7,0.6-5.8v-82.4
			c0-3-0.2-4.9-0.6-5.8c-0.2-0.4-0.8-0.9-1.9-1.3c-2.7-1.1-8.6-1.7-17.6-1.7h-19.7V130h79c10.6,0,19.1,3.1,25.4,9.3
			c5,4.9,7.5,10,7.5,15.2c0,6.4-1.5,11.2-4.6,14.4c-4,4.4-11.6,7.5-22.9,9.3c11.8,1.6,20.4,5.3,25.9,11c4.5,4.7,6.8,10.7,6.8,18.1
			c0,6-2.6,11.6-7.7,16.8C499.6,230.2,492.2,233.2,483.3,233.2 M453.9,177.5h13.7c7.2,0,12.5-1.4,15.9-4.3c4.1-3.5,6.2-9.2,6.2-17.2
			c0-9-1.7-15.4-5-19c-3.4-3.6-9-5.5-17-5.5h-7.1c-2.1,0-3.6,0.2-4.6,0.5c-1,0.3-1.6,1-1.8,2.1c-0.2,1.1-0.4,3.2-0.4,6.3V177.5z
			 M471.4,179h-17.5v43.6c0,3.2,0.2,5.3,0.5,6.1c0.3,0.9,1.1,1.5,2.2,2c1.1,0.5,2.6,0.8,4.5,0.9c1.8,0.1,6.1,0.2,12.8,0.2
			c7,0,12.3-2.3,15.7-6.9c3.2-4.2,4.7-10,4.7-17.5c0-8.9-1.8-15.7-5.5-20.6C485,181.6,479.1,179,471.4,179"/>
		<path class="st1" d="M605,210.2v5.3c0,6.3-0.6,10.6-1.7,13.1c-1.8,4.1-5.3,6.1-10.5,6.1c-6.8,0-11.3-2.8-13.5-8.3
			c-1.8-4.5-2.7-13-2.7-25.6v-3.4c0-1,0.1-2.2,0.1-3.4c0-5.7-1.2-9.5-3.7-11.4c-2.5-2-6-3-10.6-3h-17.4v43c0,3.2,0.2,5.3,0.5,6.1
			c0.3,0.9,1.1,1.5,2.2,2c1.1,0.5,3.5,0.8,7,0.9c3.5,0.1,7.2,0.2,11,0.2v1.4h-60.1v-1.6c10.3,0,16.6-0.4,18.6-1.3
			c1-0.4,1.7-1,2.1-1.9c0.4-0.8,0.6-2.7,0.6-5.8v-82.5c0-3-0.2-4.9-0.6-5.6c-0.2-0.4-0.8-0.9-1.9-1.3c-2.9-1.2-9.1-1.7-18.8-1.7V130
			h60.5c10.6,0,19.1,3.1,25.4,9.3c5,4.9,7.5,10,7.5,15.2c0,6.2-2,11.3-5.9,15.2c-4.8,4.8-12.3,7.9-22.6,9.2
			c10.5,2.2,17.4,8.6,20.8,19c1.7,5.2,2.5,13.1,2.5,23.7c0,3.1,0.2,5.3,0.8,6.7c0.5,1.4,1.7,2.1,3.6,2.1c2.1,0,3.5-1.8,4.3-5.4
			c0.8-3.6,1.2-8.5,1.2-14.8H605z M545.1,177.9h13.7c7.2,0,12.5-1.4,15.9-4.3c4.1-3.4,6.2-9.3,6.2-17.4c0-9-1.7-15.4-5.1-19.1
			c-3.4-3.7-9-5.5-16.9-5.5h-7.1c-2.1,0-3.6,0.2-4.6,0.5c-1,0.3-1.6,1-1.8,2c-0.2,1-0.4,3.1-0.4,6.2V177.9z"/>
		<path class="st1" d="M709.4,130l24.9,74.6L755,130h52.1v1.4c-9,0-26,0.6-28.9,1.9c-1,0.4-1.6,0.9-1.8,1.3
			c-0.5,0.9-0.7,2.9-0.7,5.8v82.2c0,3.2,0.2,5.2,0.6,6c0.2,0.4,0.9,0.9,2.1,1.3c1.2,0.5,3.4,0.9,6.4,1.2c3.1,0.3,6.8,0.5,11.1,0.5
			v1.6h-57.1v-1.6c3.5,0,6.9-0.2,9.8-0.5c3-0.3,5.1-0.7,6.2-1.2c1.1-0.5,1.8-0.9,2-1.3c0.4-0.9,0.6-2.8,0.6-6l-0.2-87.2
			c0-1.8-0.2-2.7-0.6-2.7c-0.4,0-0.8,0.8-1.3,2.4l-27,98.1h-3.2l-31.9-98.1l-1.2-2.4c-0.3,0-0.4,0.9-0.4,2.7v67
			c0,11.8,1.4,19.7,4.3,23.5c2.9,3.8,8.4,5.7,16.5,5.7v1.6h-41.8v-1.6c6.9,0,11.8-1.9,14.7-5.8c2.9-3.9,4.3-10.4,4.3-19.6v-49.6
			c0-9.4-1.3-16-4-19.7c-2.7-3.7-7.6-5.5-15-5.5v-1.6L709.4,130z"/>
		<path class="st1" d="M851,197.2h-28.5l-4.5,14.1c-1.2,3.5-1.7,6.6-1.7,9.2c0,4,1.4,6.8,4.1,8.5c2.8,1.7,6.7,2.6,11.7,2.6v1.6
			h-37.6v-1.6c6.8,0,12.1-2.8,15.8-8.3c2-3.1,4.7-9.5,8-19.2l25-75.3h3l31.9,93.9c1.5,4.4,3,7,4.4,7.8c1.5,0.8,5.9,1.2,13.3,1.2v1.6
			h-54.5v-1.6c7.4,0,12.5-0.3,15.2-0.9c2.8-0.6,4.1-1.8,4.1-3.6l-0.3-1.6L851,197.2z M850.3,195.5l-13.5-40.7l-13.5,40.7H850.3z"/>
		<path class="st1" d="M954.5,137.9c5.7-5.4,8.9-8.5,9.6-9.1v34.9l-1.2-0.5c-1.4-9.3-5-17.2-10.8-23.5c-5.8-6.3-12.4-9.5-19.8-9.5
			c-5.1,0-9.6,1.3-13.3,3.8c-4.6,3.1-6.9,7.6-6.9,13.6c0,5.8,2.5,10.4,7.5,14.1c4.2,3.1,11,5.8,20.3,8.2c12.1,3.2,20,6.2,23.7,9.1
			c6.1,4.8,9.2,12.8,9.2,24c0,10.5-3.2,18.7-9.5,24.4c-5.3,4.9-11.8,7.4-19.4,7.4c-5.8,0-11-1-15.6-3c-4.6-2-8.5-5.4-11.9-10.1
			c-5.9,8.4-9,12.8-9.3,13.1v-44.2l1.2-0.2c1.9,9.2,4,16.5,6.4,22.1c2,4.7,4.3,8.6,7,11.7c5.2,6.1,12.8,9.1,22.8,9.1
			c4.6,0,8.9-1.7,12.7-5c4.4-3.8,6.7-8.6,6.7-14.4c0-7-3-12.6-9-16.6c-4.1-2.8-11.3-5.7-21.6-8.7c-10.3-3-17.4-6.2-21.4-9.3
			c-5.9-4.8-8.8-11.8-8.8-21c0-8.2,2.7-15.2,8.1-20.9c5.4-5.7,11.8-8.6,19.2-8.6c6.3,0,11.5,1,15.6,3.1
			C947,132.4,949.9,134.4,954.5,137.9"/>
		<polygon class="st1" points="1166.7,231.5 1151.1,231.5 1151.1,147.8 1150.7,147.8 1101.5,214.5 1052.8,147.8 1052.4,147.8
			1052.4,231.5 1036.7,231.5 1036.7,129.1 1056.3,129.1 1101.7,191 1147.2,129.1 1166.7,129.1 		"/>
		<polygon class="st1" points="1289.6,231.5 1190.5,231.5 1190.5,129.1 1285.9,129.1 1285.9,144.4 1206.2,144.4 1206.2,170.7
			1261.6,170.7 1261.6,186 1206.2,186 1206.2,216.3 1289.6,216.3 		"/>
		<path class="st1" d="M1365.2,129.1c16.4,0,29.5,4.8,39.2,14.2c9.6,9.5,14.4,22.2,14.4,38.1c0,14.6-5.1,26.8-15.3,36.5
			c-9.5,9-21.2,13.5-35.3,13.5h-62.8V129.1H1365.2z M1369.5,216.3c9.4,0,17.1-3.3,23.2-9.9c6.1-6.5,9.1-15,9.1-25.3
			c0-10.9-3.3-19.8-9.7-26.5c-6.5-6.7-15-10.1-25.5-10.1H1321v71.9H1369.5z"/>
		<rect x="1436.6" y="129.1" class="st1" width="15.7" height="102.4"/>
		<path class="st1" d="M1592.5,231.5h-17.2l-10.9-22.9h-63.7l-10.9,22.9h-17.2l50-102.4h19.7L1592.5,231.5z M1556.8,193.3
			l-24.1-49.6l-24.4,49.6H1556.8z"/>
		<path class="st1" d="M631.2,130h-26.4v1.4c8.9,0,14.7,0.6,17.6,1.8c1.1,0.5,1.7,0.9,1.9,1.3c0.4,0.8,0.6,2.6,0.6,5.6v82.5
			c0,3-0.2,4.9-0.5,5.5c-0.4,0.7-1.1,1.3-2.2,1.8c-1.1,0.5-3.3,0.9-6.4,1.2c-3.1,0.3-6.8,0.5-11,0.5v1.6h26.4V130z"/>
		<path class="st1" d="M644.1,133.9l1.5-0.7c1.3-0.5,3.5-1,6.6-1.3c3.1-0.3,6.8-0.5,11-0.5V130h-26.4v103.2h26.2v-1.6
			c-8.9,0-14.7-0.6-17.6-1.8c-1-0.4-1.6-0.8-1.8-1.3c-0.4-0.9-0.6-2.8-0.6-6v-82.5C643.1,136.6,643.4,134.5,644.1,133.9"/>
		<path class="st3" d="M643.6,328.6h-33.5v-2.7c5,0,5.5-0.7,5.5-5.6v-33.9c0-5-0.5-5.6-5.5-5.6v-2.8h31.7l2.2,11.3h-3.5
			c-1.8-7.5-2.5-7.9-6.3-7.9h-7.9c-2.2,0-2.5,0.5-2.5,3.2v16.1h7.3c3.1,0,3.7-0.8,3.7-6.9h3.3v17.4h-3.3c0-6.6-0.5-7-3.6-7h-7.4
			v18.1c0,2.8,0.5,3.1,1.9,3.1H636c3.9,0,4.7-0.6,6.4-8.3h3.5L643.6,328.6z"/>
		<path class="st3" d="M666.6,299.6c3-3.7,6.9-6,11.3-6c7.5,0,10.6,4.1,10.6,11.2v16.4c0,4.3,0.3,5.2,3.6,5.2v2.4h-14.8v-2.4
			c3.3,0,3.5-0.5,3.5-5.4v-16c0-5.5-1.6-7.9-5.6-7.9c-2.7,0-5.8,2.5-8.6,6.4V321c0,4.8,0.1,5.3,3.4,5.3v2.4h-15.5v-2.4
			c3.9,0,4.3-0.5,4.3-5.4v-16.8c0-4.6-0.5-5.2-4.3-5.2v-2.2c3.6-0.5,7.3-1.5,10.6-3.3l1.1,0.5l0.3,5.5H666.6z"/>
		<path class="st3" d="M700.6,326.3c3.9,0,4.3-0.6,4.3-5.4v-34.6c0-4.4-0.5-4.9-4.3-4.9v-2.2c3.6-0.5,7.4-1.5,11-3.3l0.9,0.6v22.9
			h0.1c3-3.5,7-5.8,11.6-5.8c10.2,0,10.2,8.4,10.2,12.3V321c0,4.5,0.3,5.3,3.7,5.3v2.4h-15.1v-2.4c3.3,0,3.7-0.5,3.7-5.4v-14.8
			c0-4.5-0.3-9-5.4-9c-3,0-6,2.6-8.8,6.3V321c0,4.8,0.3,5.3,3.5,5.3v2.4h-15.5V326.3z"/>
		<path class="st3" d="M767.8,303.5c0-5.2-2-7.3-5.9-7.3c-3.5,0-5.6,2.1-6.8,5.4c-0.5,1.4-1.4,2.3-3.5,2.3c-2.1,0-2.9-1.3-2.9-2.8
			c0-3.4,4.3-7.6,13.8-7.6c7,0,13.2,1.8,13.2,11.5v16.3c0,3.5,0.7,5,2.2,5c0.7,0,1.4-0.2,2-0.5l0.5,2.3c-1.6,0.6-3.3,1-6,1
			c-3.5,0-5.2-1.2-6-3.8H768c-2.4,2.4-5.4,4.3-10.7,4.3c-4.9,0-10.2-2.9-10.2-9c0-3.5,1.4-6.3,4.9-8.5c2.6-1.7,6.4-3.1,11.3-4.2
			l4.6-1.2V303.5z M767.8,309.3c-6.1,1.8-12.6,4.3-12.6,10c0,5.4,3.5,6.3,5.8,6.3c3.1,0,5.3-1.8,6.9-3.4V309.3z"/>
		<path class="st3" d="M800.2,299.6c3.1-3.7,6.9-6,11.3-6c7.5,0,10.6,4.1,10.6,11.2v16.4c0,4.3,0.3,5.2,3.6,5.2v2.4h-14.8v-2.4
			c3.3,0,3.5-0.5,3.5-5.4v-16c0-5.5-1.6-7.9-5.6-7.9c-2.7,0-5.8,2.5-8.6,6.4V321c0,4.8,0.1,5.3,3.4,5.3v2.4h-15.5v-2.4
			c3.9,0,4.3-0.5,4.3-5.4v-16.8c0-4.6-0.5-5.2-4.3-5.2v-2.2c3.6-0.5,7.3-1.5,10.6-3.3l1.1,0.5l0.3,5.5H800.2z"/>
		<path class="st3" d="M863.5,321.9c-2.7,4.3-6.6,7.7-12.9,7.7c-14.4,0-16-12.9-16-18.2c0-10.6,6.2-17.8,16.5-17.8
			c7.1,0,11.5,3.9,11.5,7.3c0,1.8-0.9,3.1-2.6,3.1c-2.2,0-3.1-2-4-4c-0.9-2.2-2.3-3.7-4.8-3.7c-4.3,0-8.5,4.4-8.5,14.9
			c0,13.3,6.2,15.1,9.3,15.1c4.9,0,7.5-3.5,9-5.8L863.5,321.9z"/>
		<path class="st3" d="M884.7,294v27c0,4.7,0.3,5.3,4.3,5.3v2.4h-16.8v-2.4c4.3,0,4.6-0.6,4.6-5.4v-17c0-4.7-0.2-5-4.6-5v-2.2
			c4-0.4,7.5-1.4,11.5-3.3L884.7,294z M885.1,284.6c0,3.2-2,5.2-4.6,5.2c-2.6,0-4.5-2-4.5-5.2c0-3.1,2-5.1,4.5-5.1
			C883.2,279.5,885.1,281.6,885.1,284.6"/>
		<path class="st3" d="M909.7,299.6c3.1-3.7,6.8-6,11.3-6c7.5,0,10.6,4.1,10.6,11.2v16.4c0,4.3,0.3,5.2,3.6,5.2v2.4h-14.8v-2.4
			c3.3,0,3.5-0.5,3.5-5.4v-16c0-5.5-1.6-7.9-5.6-7.9c-2.7,0-5.8,2.5-8.6,6.4V321c0,4.8,0.1,5.3,3.4,5.3v2.4h-15.5v-2.4
			c3.9,0,4.3-0.5,4.3-5.4v-16.8c0-4.6-0.5-5.2-4.3-5.2v-2.2c3.6-0.5,7.3-1.5,10.6-3.3l1.1,0.5l0.3,5.5H909.7z"/>
		<path class="st3" d="M972.1,297.8c2.3,2.2,3.5,5,3.5,8.4c0,8.6-6.7,12.7-14.8,12.7c-2.5,0-4.9-0.4-7.1-1.3
			c-1.8,1.2-2.9,2.4-2.9,3.8c0,2,2,3,6,3h7.7c10.9,0,14.5,4.8,14.5,10c0,7.3-7.7,12.6-19.2,12.6c-10.1,0-16.7-2.8-16.7-8.7
			c0-4.4,4.1-7.4,8.1-9c-2.9-0.7-5.7-2.5-5.7-5.7c0-3.3,2.8-5.3,5.8-7c-3.5-2.1-5.8-5.8-5.8-10.3c0-8.1,6.4-12.7,14.9-12.7
			c3.9,0,6.9,1,9,2.2l9.6-1.3v3.9L972.1,297.8z M954.6,330.2c-3.2,2-5.1,4.4-5.1,7.2c0,4.1,4.1,6.9,10.7,6.9
			c7.9,0,12.5-3.7,12.5-8.1c0-2.9-1.8-6-9.4-6H954.6z M967.7,306.1c0-5.1-2.2-9.9-7.1-9.9c-4.8,0-7.1,4.8-7.1,9.9c0,6,2.7,10,7.3,10
			C965.6,316.1,967.7,311.8,967.7,306.1"/>
		<path class="st3" d="M1027,306.5l-11.7-21c-2.2-4.1-3-4.7-5.6-4.7v-2.8h17.2v2.8c-2.7,0-3.8,0.4-3.8,1.4c0,0.7,0.5,1.7,1.2,3.1
			l9,16.7h0.2l8.5-16.5c0.8-1.6,1.2-2.6,1.2-3.4c0-1-0.9-1.3-3.1-1.3v-2.8h11.7v2.8c-2.5,0-3.2,0.5-5,4.1l-11.5,21.5v13.8
			c0,4.9,0.5,5.6,6.1,5.6v2.7h-20.5v-2.7c5.7,0,6.1-0.7,6.1-5.6V306.5z"/>
		<path class="st3" d="M1056.6,311.3c0-10.2,4.9-17.8,16.8-17.8c12.7,0,16.7,8.5,16.7,17.8c0,6.8-1.7,11.3-4.6,14.1
			c-3.1,2.9-7.1,4.2-12.1,4.2C1063.4,329.5,1056.6,324.5,1056.6,311.3 M1064.8,311.5c0,6.8,1.2,15.3,8.5,15.3
			c6.8,0,8.5-7.1,8.5-15.3c0-7.7-1.5-15.3-8.5-15.3C1065.9,296.2,1064.8,304.6,1064.8,311.5"/>
		<path class="st3" d="M1132.5,321.1c0,4.7,0.3,5.3,4.2,5.3v2.2c-3.5,0-6.6,0-10.7,1l-0.7-0.4l-0.3-4.7h-0.2
			c-2.3,2.7-5.6,5.1-10.8,5.1c-7.8,0-10.8-4.5-10.8-12.3v-13.3c0-4.5-0.3-4.9-3.7-4.9v-2.2c3.2-0.5,7.1-1.6,10.5-3.3l1.1,0.5v22.3
			c0,2.8,0,9.3,5.9,9.3c3,0,5.6-1.8,7.9-4.9v-16.9c0-4.5-0.3-4.9-3.7-4.9v-2.2c3.2-0.5,7-1.6,10.4-3.3l1,0.5V321.1z"/>
		<path class="st3" d="M1157.4,299.2h0.1c3-3.9,5.4-5.7,8.9-5.7c3.5,0,6.1,2.7,6.1,5.6c0,2-1,3.4-2.8,3.4c-1.4,0-2.5-0.8-3.2-2.7
			c-0.7-2-1.2-2.6-2.4-2.6c-2,0-4.1,2.2-6.6,5.8V321c0,4.6,0.5,5.3,5,5.3v2.4h-17v-2.4c3.9,0,4.3-0.5,4.3-5.3v-17.1
			c0-4.4-0.4-4.9-4.3-4.9v-2.2c3.6-0.4,7.2-1.4,10.7-3.3l0.9,0.6L1157.4,299.2z"/>
		<path class="st3" d="M1209.5,286.5c0-5.1-0.5-5.6-5.5-5.6v-2.8h17.6c6.8,0,10.7,0.5,14,2.9c2.6,1.8,4.3,4.7,4.3,8.5
			c0,4.8-2.4,10.8-13.5,12.4v0.1c10.1,0.3,15.7,5.1,15.7,12.4c0,4.3-1.4,7.7-3.9,10.2c-2.8,2.7-7,4.1-14.2,4.1H1204v-2.7
			c5,0,5.5-0.7,5.5-5.7V286.5z M1219.8,281.4c-1.8,0-2,0.7-2,2.4v16.6h3.7c4.6,0,10.1-1.7,10.1-10.1c0-6.3-3.2-8.9-8.3-8.9H1219.8z
			 M1217.8,303.8v18c0,2.8,0.5,3.4,2.4,3.4h4.2c7.6,0,9-5.6,9-11.2c0-5.4-2.6-10.2-11-10.2H1217.8z"/>
		<path class="st3" d="M1263.7,299.2h0.1c3-3.9,5.4-5.7,8.9-5.7c3.5,0,6.1,2.7,6.1,5.6c0,2-1,3.4-2.8,3.4c-1.4,0-2.5-0.8-3.2-2.7
			c-0.7-2-1.2-2.6-2.4-2.6c-2,0-4.1,2.2-6.6,5.8V321c0,4.6,0.5,5.3,5,5.3v2.4h-17v-2.4c3.9,0,4.3-0.5,4.3-5.3v-17.1
			c0-4.4-0.4-4.9-4.3-4.9v-2.2c3.6-0.4,7.2-1.4,10.7-3.3l0.9,0.6L1263.7,299.2z"/>
		<path class="st3" d="M1307.9,303.5c0-5.2-2-7.3-5.9-7.3c-3.5,0-5.6,2.1-6.8,5.4c-0.5,1.4-1.4,2.3-3.5,2.3c-2.1,0-2.9-1.3-2.9-2.8
			c0-3.4,4.3-7.6,13.8-7.6c7,0,13.2,1.8,13.2,11.5v16.3c0,3.5,0.7,5,2.2,5c0.7,0,1.4-0.2,2-0.5l0.5,2.3c-1.6,0.6-3.2,1-6,1
			c-3.5,0-5.1-1.2-6-3.8h-0.3c-2.4,2.4-5.3,4.3-10.7,4.3c-4.9,0-10.2-2.9-10.2-9c0-3.5,1.4-6.3,4.9-8.5c2.6-1.7,6.4-3.1,11.3-4.2
			l4.6-1.2V303.5z M1307.9,309.3c-6.1,1.8-12.6,4.3-12.6,10c0,5.4,3.5,6.3,5.8,6.3c3.1,0,5.3-1.8,6.8-3.4V309.3z"/>
		<path class="st3" d="M1340.3,299.6c3.1-3.7,6.9-6,11.3-6c7.5,0,10.6,4.1,10.6,11.2v16.4c0,4.3,0.3,5.2,3.6,5.2v2.4H1351v-2.4
			c3.3,0,3.5-0.5,3.5-5.4v-16c0-5.5-1.6-7.9-5.6-7.9c-2.7,0-5.8,2.5-8.6,6.4V321c0,4.8,0.1,5.3,3.4,5.3v2.4h-15.5v-2.4
			c3.9,0,4.3-0.5,4.3-5.4v-16.8c0-4.6-0.5-5.2-4.3-5.2v-2.2c3.6-0.5,7.3-1.5,10.6-3.3l1.1,0.5l0.3,5.5H1340.3z"/>
		<path class="st3" d="M1398.5,297v-10.6c0-4.3-0.3-5-4.3-5v-2.2c4.1-0.5,7.7-1.4,11.1-3.3l0.9,0.5v45.4c0,4.2,0.5,4.5,3.7,4.6v2
			c-2.6,0-7.1,0.1-10.4,1.1l-0.6-0.5l-0.3-3.7h-0.1c-1.6,1.9-4.7,4.1-9.4,4.1c-7.6,0-14.4-5.3-14.4-18.4c0-9.1,4.5-17.5,15.3-17.5
			c4,0,6.7,1.8,8.3,3.5H1398.5z M1398.5,301.2c-1.6-2.4-4-4.5-7-4.5c-8.1,0-8.5,10-8.5,14.9c0,9.4,3.5,14.8,8.3,14.8
			c3.3,0,5.6-2.4,7.2-4.6V301.2z"/>
	</g>
</g>
</svg>
